<svg id="visual" viewBox="0 0 900 600" width="900" height="600" xmlns="http://www.w3.org/2000/svg" xmlns:xlink="http://www.w3.org/1999/xlink" version="1.1"><g stroke-width="1" stroke-linejoin="bevel"><path d="M477 301L388 288L419 393Z" fill="#e7f3ed" stroke="#e7f3ed"></path><path d="M388 288L313 378L419 393Z" fill="#f2f8f5" stroke="#f2f8f5"></path><path d="M409 477L500 435L419 393Z" fill="#f0f7f3" stroke="#f0f7f3"></path><path d="M419 393L500 435L477 301Z" fill="#ecf5f0" stroke="#ecf5f0"></path><path d="M313 378L409 477L419 393Z" fill="#edf6f1" stroke="#edf6f1"></path><path d="M590 285L490 191L477 301Z" fill="#ebf4ef" stroke="#ebf4ef"></path><path d="M477 301L490 191L388 288Z" fill="#e7f3ed" stroke="#e7f3ed"></path><path d="M299 234L278 280L388 288Z" fill="#e6f2ec" stroke="#e6f2ec"></path><path d="M388 288L278 280L313 378Z" fill="#ebf4ef" stroke="#ebf4ef"></path><path d="M436 167L299 234L388 288Z" fill="#f1f7f4" stroke="#f1f7f4"></path><path d="M490 191L436 167L388 288Z" fill="#eaf4ee" stroke="#eaf4ee"></path><path d="M500 435L590 285L477 301Z" fill="#eef6f2" stroke="#eef6f2"></path><path d="M409 477L474 503L500 435Z" fill="#ecf5f0" stroke="#ecf5f0"></path><path d="M500 435L634 413L590 285Z" fill="#ebf4ef" stroke="#ebf4ef"></path><path d="M498 105L413 138L436 167Z" fill="#e8f3ee" stroke="#e8f3ee"></path><path d="M436 167L413 138L299 234Z" fill="#ebf4ef" stroke="#ebf4ef"></path><path d="M278 280L236 382L313 378Z" fill="#eef6f2" stroke="#eef6f2"></path><path d="M313 378L278 526L409 477Z" fill="#e8f3ee" stroke="#e8f3ee"></path><path d="M299 234L227 270L278 280Z" fill="#eaf4ee" stroke="#eaf4ee"></path><path d="M278 280L227 270L236 382Z" fill="#f0f7f3" stroke="#f0f7f3"></path><path d="M173 199L227 270L299 234Z" fill="#e7f3ed" stroke="#e7f3ed"></path><path d="M596 480L634 413L500 435Z" fill="#edf6f1" stroke="#edf6f1"></path><path d="M474 503L596 480L500 435Z" fill="#eaf4ee" stroke="#eaf4ee"></path><path d="M700 303L620 201L590 285Z" fill="#edf6f1" stroke="#edf6f1"></path><path d="M590 285L620 201L490 191Z" fill="#f0f7f3" stroke="#f0f7f3"></path><path d="M490 191L498 105L436 167Z" fill="#ebf4ef" stroke="#ebf4ef"></path><path d="M620 201L498 105L490 191Z" fill="#e6f2ec" stroke="#e6f2ec"></path><path d="M236 382L278 526L313 378Z" fill="#ecf5f0" stroke="#ecf5f0"></path><path d="M409 477L423 600L474 503Z" fill="#e8f3ee" stroke="#e8f3ee"></path><path d="M278 526L423 600L409 477Z" fill="#eef6f2" stroke="#eef6f2"></path><path d="M474 503L582 600L596 480Z" fill="#e7f3ed" stroke="#e7f3ed"></path><path d="M423 600L468 600L474 503Z" fill="#ebf4ef" stroke="#ebf4ef"></path><path d="M309 0L271 111L413 138Z" fill="#eaf4ee" stroke="#eaf4ee"></path><path d="M413 138L271 111L299 234Z" fill="#ebf4ef" stroke="#ebf4ef"></path><path d="M696 416L700 303L634 413Z" fill="#ecf5f0" stroke="#ecf5f0"></path><path d="M634 413L700 303L590 285Z" fill="#eef6f2" stroke="#eef6f2"></path><path d="M676 523L634 413L596 480Z" fill="#eef6f2" stroke="#eef6f2"></path><path d="M676 523L696 416L634 413Z" fill="#e8f3ee" stroke="#e8f3ee"></path><path d="M127 394L182 483L236 382Z" fill="#e8f3ee" stroke="#e8f3ee"></path><path d="M236 382L182 483L278 526Z" fill="#e6f2ec" stroke="#e6f2ec"></path><path d="M278 526L278 600L423 600Z" fill="#f1f7f4" stroke="#f1f7f4"></path><path d="M271 111L173 199L299 234Z" fill="#e7f3ed" stroke="#e7f3ed"></path><path d="M121 291L127 394L236 382Z" fill="#ebf4ef" stroke="#ebf4ef"></path><path d="M309 0L231 108L271 111Z" fill="#f0f7f3" stroke="#f0f7f3"></path><path d="M271 111L231 108L173 199Z" fill="#f1f7f4" stroke="#f1f7f4"></path><path d="M229 600L278 600L278 526Z" fill="#e6f2ec" stroke="#e6f2ec"></path><path d="M121 291L236 382L227 270Z" fill="#e6f2ec" stroke="#e6f2ec"></path><path d="M700 303L716 230L620 201Z" fill="#e7f3ed" stroke="#e7f3ed"></path><path d="M587 0L505 0L498 105Z" fill="#e6f2ec" stroke="#e6f2ec"></path><path d="M815 272L716 230L700 303Z" fill="#e6f2ec" stroke="#e6f2ec"></path><path d="M468 600L582 600L474 503Z" fill="#eaf4ee" stroke="#eaf4ee"></path><path d="M173 199L121 291L227 270Z" fill="#f1f7f4" stroke="#f1f7f4"></path><path d="M582 600L676 523L596 480Z" fill="#f1f7f4" stroke="#f1f7f4"></path><path d="M182 483L229 600L278 526Z" fill="#ebf4ef" stroke="#ebf4ef"></path><path d="M79 600L229 600L182 483Z" fill="#e6f2ec" stroke="#e6f2ec"></path><path d="M505 0L424 0L498 105Z" fill="#eaf4ee" stroke="#eaf4ee"></path><path d="M498 105L424 0L413 138Z" fill="#eef6f2" stroke="#eef6f2"></path><path d="M636 60L498 105L620 201Z" fill="#e7f3ed" stroke="#e7f3ed"></path><path d="M136 98L102 220L173 199Z" fill="#f2f8f5" stroke="#f2f8f5"></path><path d="M173 199L102 220L121 291Z" fill="#e6f2ec" stroke="#e6f2ec"></path><path d="M0 424L71 516L127 394Z" fill="#f0f7f3" stroke="#f0f7f3"></path><path d="M712 110L636 60L620 201Z" fill="#ecf5f0" stroke="#ecf5f0"></path><path d="M760 509L772 381L696 416Z" fill="#e6f2ec" stroke="#e6f2ec"></path><path d="M696 416L772 381L700 303Z" fill="#eef6f2" stroke="#eef6f2"></path><path d="M424 0L309 0L413 138Z" fill="#ecf5f0" stroke="#ecf5f0"></path><path d="M231 108L136 98L173 199Z" fill="#f1f7f4" stroke="#f1f7f4"></path><path d="M832 236L712 110L716 230Z" fill="#ecf5f0" stroke="#ecf5f0"></path><path d="M716 230L712 110L620 201Z" fill="#f0f7f3" stroke="#f0f7f3"></path><path d="M735 0L587 0L636 60Z" fill="#e8f3ee" stroke="#e8f3ee"></path><path d="M636 60L587 0L498 105Z" fill="#f1f7f4" stroke="#f1f7f4"></path><path d="M582 600L687 600L676 523Z" fill="#edf6f1" stroke="#edf6f1"></path><path d="M676 523L760 509L696 416Z" fill="#e8f3ee" stroke="#e8f3ee"></path><path d="M177 0L136 98L231 108Z" fill="#edf6f1" stroke="#edf6f1"></path><path d="M687 600L760 509L676 523Z" fill="#edf6f1" stroke="#edf6f1"></path><path d="M900 334L815 272L772 381Z" fill="#e7f3ed" stroke="#e7f3ed"></path><path d="M772 381L815 272L700 303Z" fill="#e6f2ec" stroke="#e6f2ec"></path><path d="M0 336L127 394L121 291Z" fill="#f1f7f4" stroke="#f1f7f4"></path><path d="M127 394L71 516L182 483Z" fill="#e6f2ec" stroke="#e6f2ec"></path><path d="M309 0L177 0L231 108Z" fill="#e6f2ec" stroke="#e6f2ec"></path><path d="M900 334L832 236L815 272Z" fill="#f2f8f5" stroke="#f2f8f5"></path><path d="M815 272L832 236L716 230Z" fill="#e8f3ee" stroke="#e8f3ee"></path><path d="M0 215L0 336L121 291Z" fill="#edf6f1" stroke="#edf6f1"></path><path d="M0 215L121 291L102 220Z" fill="#e8f3ee" stroke="#e8f3ee"></path><path d="M0 215L102 220L0 77Z" fill="#ebf4ef" stroke="#ebf4ef"></path><path d="M0 336L0 424L127 394Z" fill="#e7f3ed" stroke="#e7f3ed"></path><path d="M0 600L79 600L71 516Z" fill="#ebf4ef" stroke="#ebf4ef"></path><path d="M71 516L79 600L182 483Z" fill="#eaf4ee" stroke="#eaf4ee"></path><path d="M0 77L102 220L136 98Z" fill="#f1f7f4" stroke="#f1f7f4"></path><path d="M0 424L0 474L71 516Z" fill="#edf6f1" stroke="#edf6f1"></path><path d="M832 236L796 74L712 110Z" fill="#f0f7f3" stroke="#f0f7f3"></path><path d="M712 110L735 0L636 60Z" fill="#e6f2ec" stroke="#e6f2ec"></path><path d="M796 74L735 0L712 110Z" fill="#f0f7f3" stroke="#f0f7f3"></path><path d="M687 600L808 600L760 509Z" fill="#e8f3ee" stroke="#e8f3ee"></path><path d="M900 386L900 334L772 381Z" fill="#eef6f2" stroke="#eef6f2"></path><path d="M900 386L772 381L900 475Z" fill="#f0f7f3" stroke="#f0f7f3"></path><path d="M832 236L900 101L796 74Z" fill="#ebf4ef" stroke="#ebf4ef"></path><path d="M900 475L772 381L760 509Z" fill="#ebf4ef" stroke="#ebf4ef"></path><path d="M177 0L86 0L136 98Z" fill="#f1f7f4" stroke="#f1f7f4"></path><path d="M900 0L771 0L796 74Z" fill="#e8f3ee" stroke="#e8f3ee"></path><path d="M796 74L771 0L735 0Z" fill="#e8f3ee" stroke="#e8f3ee"></path><path d="M900 334L900 212L832 236Z" fill="#ebf4ef" stroke="#ebf4ef"></path><path d="M808 600L900 475L760 509Z" fill="#eef6f2" stroke="#eef6f2"></path><path d="M86 0L0 77L136 98Z" fill="#eaf4ee" stroke="#eaf4ee"></path><path d="M0 474L0 600L71 516Z" fill="#e6f2ec" stroke="#e6f2ec"></path><path d="M900 212L900 101L832 236Z" fill="#eef6f2" stroke="#eef6f2"></path><path d="M86 0L0 0L0 77Z" fill="#e6f2ec" stroke="#e6f2ec"></path><path d="M808 600L900 600L900 475Z" fill="#e6f2ec" stroke="#e6f2ec"></path><path d="M900 101L900 0L796 74Z" fill="#eef6f2" stroke="#eef6f2"></path></g></svg>